# xmcd
#
# Track frame offsets:
#	150
#	15555
#	34717
#	49752
#	67092
#	82077
#	95050
#	113340
#	129767
#	147700
#	165455
#	181277
#	197672
#	215897
#	231917
#	247357
#	265140
#	279195
#	297022
#	314850
#
# Disc length: 4487
#
# Revision: 2
# Processed by: cddbd v1.5.1PL0 Copyright (c) Steve Scherf et al.
# Submitted via: EasyCDDAExtractor 7.0.6.1
# Normalized: r1:DSETVAR1
#
DISCID=31118514
DTITLE=Various Artist - Max 12
DYEAR=2004
DGENRE=Pop
TTITLE0=Avril Lavigne - Don't Tell Me
TTITLE1=Usher - Burn
TTITLE2=Britney Spears - Toxic
TTITLE3=Black Eyed Peas - Where Is The Love?
TTITLE4=Westlife - Mandy
TTITLE5=The Corrs - Summer Sunshine
TTITLE6=Gareth Gates - Say It Isn't So
TTITLE7=Justin Timberlake - I'm Lovin' It
TTITLE8=Mis-Teeq - Scandalous
TTITLE9=Outkast - Hey Ya!
TTITLE10=Alanis Morissette - Everything
TTITLE11=Dido - White Flag
TTITLE12=Josh Groban - You Raise Me Up
TTITLE13=Michelle Brach - Breathe
TTITLE14=Maroon 5 - This Love
TTITLE15=Muse - Time Is Running Out
TTITLE16=Linkin Park - Numb
TTITLE17=Evanescence - Bring Me To Life
TTITLE18=Beyonce - Crazy In Love
TTITLE19=Craig David - Rise and Fall (acoustic)
EXTD=
EXTT0=
EXTT1=
EXTT2=
EXTT3=
EXTT4=
EXTT5=
EXTT6=
EXTT7=
EXTT8=
EXTT9=
EXTT10=
EXTT11=
EXTT12=
EXTT13=
EXTT14=
EXTT15=
EXTT16=
EXTT17=
EXTT18=
EXTT19=
PLAYORDER=
